<svg version="1.1" id="Layer_1" xmlns="http://www.w3.org/2000/svg" xmlns:xlink="http://www.w3.org/1999/xlink" x="0px" y="0px"
	 width="100%" viewBox="0 0 552 126" enable-background="new 0 0 552 126" xml:space="preserve">
<path fill="#FBFDFE" opacity="1.000000" stroke="none" 
	d="
M467.000000,127.000000 
	C457.312439,127.000000 447.624878,127.000000 437.414795,126.533897 
	C436.884094,108.474022 436.902435,90.880196 436.860352,73.286499 
	C436.817108,55.200798 436.714874,37.115234 436.755005,18.608215 
	C436.798737,16.449097 436.725891,14.711375 436.743988,12.610378 
	C436.775269,11.505987 436.715637,10.764872 436.778046,9.619032 
	C437.466309,4.812707 434.339966,4.970049 431.514404,4.960953 
	C419.191956,4.921282 406.869354,4.943724 394.546783,4.943626 
	C391.180389,4.943599 387.813995,4.943622 384.447632,4.943622 
	C385.270325,6.435408 386.215607,6.832959 387.196533,7.099068 
	C400.379456,10.675364 411.994934,16.831905 419.591858,28.587204 
	C432.260376,48.190166 432.625214,69.281334 425.844513,90.866852 
	C421.819397,103.680435 412.744354,112.588043 401.929291,119.942535 
	C401.969360,119.984772 401.929047,119.875542 401.658508,119.902817 
	C401.151947,120.184334 400.915924,120.438560 400.745789,120.659058 
	C400.811676,120.625336 400.663910,120.634377 400.297424,120.670700 
	C395.953979,122.804680 391.976990,124.902344 388.000000,127.000000 
	C376.979095,127.000000 365.958221,127.000000 354.499207,126.667664 
	C353.416809,125.539894 352.772522,124.744461 351.980286,123.631065 
	C348.656311,121.729408 345.480255,120.145721 342.351257,118.621590 
	C342.398285,118.681152 342.365417,118.532959 342.201477,118.272324 
	C341.141327,117.521500 340.245148,117.031296 339.290253,116.575348 
	C339.231567,116.609612 339.365082,116.635010 339.244110,116.390900 
	C338.790070,116.015907 338.456970,115.885017 338.110260,115.818344 
	C338.096619,115.882568 338.226624,115.864067 338.108765,115.607773 
	C337.654358,115.200615 337.317841,115.049736 336.821411,114.613876 
	C323.425720,102.706245 317.155396,87.830696 316.620575,70.472244 
	C316.401489,63.362846 316.924316,56.230591 317.094727,49.098267 
	C317.079803,49.087799 317.097351,49.098061 317.395752,48.954727 
	C317.886322,46.903271 318.078491,44.995144 318.204742,43.088692 
	C318.138824,43.090359 318.191254,43.211353 318.477661,43.090294 
	C319.195038,41.641808 319.626007,40.314377 320.116882,38.820999 
	C320.176788,38.655048 320.126953,38.305733 320.457916,38.193768 
	C323.014862,34.173454 325.240845,30.265104 327.413452,26.276733 
	C327.360077,26.196711 327.389435,26.386829 327.638062,26.280136 
	C328.028107,25.849302 328.169556,25.525160 328.252106,25.198479 
	C328.193176,25.195936 328.264984,25.289495 328.571564,25.163534 
	C331.573364,22.361166 334.268585,19.684759 336.983704,17.013485 
	C337.003571,17.018620 337.015839,16.979399 337.358948,16.930214 
	C342.465759,14.245001 347.229462,11.608973 352.371094,8.947077 
	C355.182617,8.072929 357.616180,7.224650 360.049713,6.376372 
	C359.984283,5.975054 359.918854,5.573737 359.853394,5.172419 
	C357.553680,5.172419 355.253937,5.172419 352.568481,5.093368 
	C351.136993,5.060945 350.091187,5.107573 348.700287,5.084597 
	C347.890472,5.062267 347.425781,5.109542 346.499756,5.087806 
	C335.008606,5.109354 323.978790,5.199915 312.675781,5.357413 
	C312.368866,5.944846 312.335144,6.465341 312.185181,6.961987 
	C312.068909,6.938139 311.831665,6.946240 311.572815,7.275196 
	C311.200348,8.921758 310.987793,10.239341 310.987488,11.556974 
	C310.978699,50.037979 310.991058,88.518990 311.000000,127.000000 
	C309.285645,127.000000 307.571289,127.000000 305.460449,126.532364 
	C304.889404,119.377777 304.714813,112.690842 304.435455,105.955688 
	C304.330719,105.907478 304.100739,105.925316 303.920776,105.513916 
	C301.601685,104.927773 299.463898,104.621582 297.323151,104.599075 
	C280.229553,104.419380 263.135376,104.293404 245.865448,103.760162 
	C245.477356,96.812729 245.087265,90.254219 245.156509,83.700562 
	C245.178589,81.610451 246.419998,79.533234 247.418503,77.385582 
	C248.159378,77.354980 248.585205,77.388908 249.322571,77.630211 
	C252.086029,77.701805 254.537933,77.566017 257.454041,77.364655 
	C271.268585,77.342003 284.618988,77.384941 298.072815,77.568085 
	C298.462402,77.609283 298.748505,77.510284 299.447815,77.346786 
	C301.255493,77.241119 302.649933,77.199944 304.353271,77.200668 
	C304.619659,70.827797 304.577209,64.413025 304.430176,57.950821 
	C304.325592,57.903385 304.096954,57.925522 303.947998,57.535423 
	C301.866699,57.092606 299.934387,57.039886 297.542908,56.882847 
	C280.090240,56.712967 263.096741,56.647404 245.995544,56.203766 
	C245.916672,46.434143 245.945526,37.042591 246.377106,27.562840 
	C247.872726,27.530325 248.965652,27.586010 250.272217,27.787949 
	C251.305679,27.832830 252.125504,27.731464 253.407654,27.540920 
	C270.606140,27.395590 287.342316,27.339437 304.395660,27.283260 
	C304.836609,23.517279 305.149841,19.745281 305.030090,15.987081 
	C304.913269,12.321413 304.353943,8.669847 303.521088,4.998636 
	C300.400391,4.987732 297.747437,4.986278 295.094513,4.993456 
	C270.065125,5.061184 245.035751,5.130383 219.766388,5.198592 
	C219.526398,5.198025 219.191345,5.540730 219.191345,5.540730 
	C219.191345,5.540730 219.327271,6.000361 219.233002,6.459969 
	C219.092499,46.946384 219.046249,86.973190 219.000000,127.000000 
	C204.645767,127.000000 190.291550,127.000000 175.476654,126.531403 
	C175.017166,114.939827 175.047012,103.816772 175.013184,92.693909 
	C174.953644,73.111343 174.855194,53.528889 174.875702,33.566185 
	C174.896515,32.148678 174.814682,31.111380 174.837708,29.743130 
	C174.981934,28.951384 175.021301,28.490587 175.524002,27.985043 
	C186.265442,27.934816 196.543549,27.929338 207.221970,27.876259 
	C207.676285,24.854950 207.730286,21.881245 207.677948,18.557819 
	C207.646500,17.488861 207.721390,16.769623 208.091766,15.880808 
	C209.777695,15.151777 211.168167,14.592322 213.852142,13.512424 
	C212.280334,10.294262 210.700089,7.058862 209.630646,4.869276 
	C211.720276,3.363440 213.360138,2.181719 215.000000,0.999999 
	C327.666656,1.000000 440.333344,1.000000 553.000000,1.000000 
	C553.000000,41.666668 553.009521,82.333351 552.957947,122.999947 
	C552.956238,124.333710 552.333374,125.666672 551.339478,126.554153 
	C550.633301,89.467102 550.587524,52.825893 550.650513,15.841732 
	C550.684448,15.270900 550.609619,15.043019 550.549866,14.425179 
	C550.523071,11.754210 550.481201,9.473201 550.578247,7.043240 
	C550.615112,6.533926 550.513062,6.173565 550.100708,5.514326 
	C546.762939,5.461641 543.735352,5.707835 540.474976,6.280695 
	C540.380981,10.091408 540.519958,13.575455 540.692871,17.522631 
	C540.733826,42.382313 540.715332,66.778915 540.758667,91.175400 
	C540.779846,103.117043 540.915894,115.058472 541.000000,127.000000 
	C527.979126,127.000000 514.958191,127.000000 501.495300,126.635437 
	C490.019104,105.805367 478.984894,85.339867 467.950684,64.874367 
	C467.633789,65.009773 467.316895,65.145172 467.000000,65.280571 
	C467.000000,85.853714 467.000000,106.426857 467.000000,127.000000 
M352.832672,97.161430 
	C352.832672,97.161430 352.717285,97.201561 352.855011,97.732262 
	C353.140900,97.935898 353.426788,98.139534 353.629883,98.207832 
	C353.629883,98.207832 353.681152,98.358498 354.014435,98.928543 
	C363.441345,105.916679 373.624634,107.230026 385.069031,102.497612 
	C386.375641,101.947151 387.682251,101.396698 389.638947,100.715263 
	C390.946167,99.551399 392.253418,98.387527 393.855927,97.176064 
	C393.855927,97.176064 393.998840,96.913315 394.618561,96.674751 
	C406.331085,81.672104 406.995697,65.176376 401.189636,47.935249 
	C401.189636,47.935249 401.291016,47.855663 401.300995,47.092484 
	C398.306122,42.621597 395.311279,38.150711 392.213898,33.997837 
	C392.213898,33.997837 392.297119,33.677765 391.999390,33.129673 
	C391.108002,32.616661 390.216583,32.103653 389.229065,31.688238 
	C389.229065,31.688238 389.365814,31.680180 389.041229,31.061262 
	C373.360962,21.946150 354.676910,27.002230 346.632782,43.007481 
	C340.321106,55.565750 339.892883,68.963455 343.955688,82.212494 
	C345.490906,87.218964 349.103943,91.588272 351.905853,96.145294 
	C351.905853,96.145294 351.740295,96.185707 351.881927,96.722176 
	C352.188751,96.908051 352.495575,97.093925 352.832672,97.161430 
M509.979004,28.500031 
	C509.979004,20.758490 509.979004,13.016950 509.979004,5.330433 
	C496.932983,5.330433 484.607910,5.330433 471.572144,5.330433 
	C484.244232,28.121473 496.592316,50.329815 508.940399,72.538155 
	C509.286621,72.422104 509.632812,72.306053 509.979004,72.189995 
	C509.979004,57.959999 509.979004,43.730003 509.979004,28.500031 
z"/>
<path fill="#FBFEFE" opacity="1.000000" stroke="none" 
	d="
M214.531342,0.999999 
	C213.360138,2.181719 211.720276,3.363440 209.630646,4.869276 
	C210.700089,7.058862 212.280334,10.294262 213.852142,13.512424 
	C211.168167,14.592322 209.777695,15.151777 207.929184,15.606699 
	C207.468933,14.174997 207.465088,12.847832 207.464813,11.520665 
	C207.463303,4.257439 208.208878,4.989717 200.692795,4.991636 
	C175.250137,4.998135 149.807495,4.978909 124.364838,4.969657 
	C122.624054,4.969025 120.883270,4.969575 119.300354,4.969575 
	C119.300354,13.027434 119.300354,20.259922 119.300354,27.857914 
	C128.629776,27.857914 137.582306,27.794107 146.532379,27.914427 
	C148.221771,27.937140 149.901291,28.692453 151.498016,29.521929 
	C151.351562,60.868046 151.282211,91.801949 151.266251,122.735878 
	C151.265518,124.157127 151.744476,125.578621 152.000000,127.000000 
	C137.979111,127.000000 123.958214,127.000000 109.590431,126.544357 
	C109.264252,97.855522 109.304276,69.622330 109.291656,41.389160 
	C109.288620,34.589958 109.111145,27.790833 109.111298,20.599762 
	C109.142677,19.139635 109.076645,18.071417 109.123734,16.610561 
	C109.156837,15.138486 109.076836,14.059046 109.097076,12.659132 
	C109.135521,11.899895 109.073723,11.461130 109.126740,10.580238 
	C109.241554,8.548913 109.241554,6.959716 109.241554,5.229780 
	C100.557388,5.229780 92.497513,5.229780 84.000000,5.229780 
	C84.000000,46.005024 84.000000,86.502510 84.000000,127.000000 
	C81.299988,127.000000 78.599968,127.000000 75.372360,126.536758 
	C74.844772,118.980461 74.844772,111.887413 74.844772,104.117416 
	C58.197098,104.117416 42.323696,104.117416 25.938484,104.117416 
	C25.938484,70.711288 25.938484,37.998486 25.938484,5.311488 
	C18.497700,5.311488 11.595359,5.311488 4.245347,5.311488 
	C4.245347,7.794957 4.245288,9.929964 4.245356,12.064972 
	C4.246288,41.387463 4.266314,70.709976 4.236747,100.032433 
	C4.227682,109.021690 4.082726,118.010818 4.000000,127.000000 
	C3.001277,127.000000 2.002553,127.000000 1.002872,127.000000 
	C1.001915,85.054893 1.001915,43.109795 1.001915,1.000000 
	C72.020813,1.000000 143.041748,1.000000 214.531342,0.999999 
M30.999924,67.500000 
	C30.999928,52.686493 30.982586,37.872940 31.024527,23.059553 
	C31.029140,21.429186 31.371819,19.799591 31.560816,18.169998 
	C31.694365,17.018478 31.906099,15.866249 31.885344,14.717907 
	C31.882469,14.558837 30.250055,14.202475 30.204363,14.305740 
	C29.707396,15.428878 29.051296,16.624716 29.048361,17.802265 
	C28.986126,42.768707 28.994135,67.735359 29.036499,92.701889 
	C29.038057,93.620186 29.525719,94.537674 29.941156,95.997955 
	C30.538929,95.007805 30.848328,94.733665 30.850510,94.457115 
	C30.918745,85.804886 30.957047,77.152428 30.999924,67.500000 
z"/>
<path fill="#246CB3" opacity="1.000000" stroke="none" 
	d="
M302.000000,127.000000 
	C275.312439,127.000000 248.624878,127.000000 221.466553,126.531349 
	C220.995804,86.303963 220.995804,46.545223 220.995804,6.584035 
	C222.059906,6.584035 222.678162,6.588208 223.296356,6.583432 
	C248.565475,6.388209 273.834503,6.169336 299.103973,6.064723 
	C300.347900,6.059573 302.634003,6.986342 302.671570,7.589024 
	C302.896057,11.192119 303.663330,15.352580 302.198425,18.310926 
	C300.589691,21.559816 301.927216,21.979374 304.067108,23.334293 
	C304.103424,24.476933 304.067108,25.241489 303.560242,25.999950 
	C284.060394,25.999336 265.031097,26.004822 245.626846,26.015923 
	C244.216721,27.101795 242.324509,28.150484 242.283371,29.267353 
	C241.981140,37.473122 241.969345,45.693832 242.104111,53.905930 
	C242.120499,54.904053 243.554138,55.878914 244.515167,56.866089 
	C244.699371,56.867619 245.014526,57.058472 245.256561,57.327934 
	C248.873276,57.734245 252.247650,57.979607 255.622665,57.989021 
	C269.749573,58.028446 283.876648,57.997116 298.437744,57.994965 
	C300.613525,57.973991 302.355225,57.949757 304.096954,57.925522 
	C304.096954,57.925522 304.325592,57.903385 304.292114,58.311909 
	C304.166901,59.490124 304.075226,60.259819 303.639038,61.026604 
	C300.093872,63.122707 302.153290,66.702469 302.284637,68.779488 
	C302.701141,75.365112 302.922150,75.977386 296.483032,75.987732 
	C281.394897,76.011986 266.306580,75.962151 251.218735,76.028870 
	C249.481171,76.036560 247.746033,76.592484 245.619476,77.031929 
	C244.810410,80.657280 244.028870,84.147652 244.055038,87.631950 
	C244.097946,93.345657 244.665482,99.055428 245.206512,105.106293 
	C248.422165,105.933372 251.437881,106.775993 254.465302,106.820335 
	C258.399872,106.877991 262.341370,106.079971 266.283997,106.038071 
	C278.888550,105.904121 291.495026,105.949295 304.100739,105.925316 
	C304.100739,105.925316 304.330719,105.907478 304.296692,106.315002 
	C304.171814,107.489738 304.080994,108.256950 303.602203,109.026558 
	C302.553894,109.740105 301.314117,110.460732 301.325562,111.160889 
	C301.412048,116.442856 301.744415,121.720802 302.000000,127.000000 
M268.530212,67.001221 
	C264.908691,67.001221 261.287201,67.001221 257.665680,67.001221 
	C257.683929,67.440132 257.702179,67.879044 257.720428,68.317955 
	C267.906891,68.317955 278.093323,68.317955 288.279785,68.317955 
	C288.285034,67.879044 288.290283,67.440132 288.295532,67.001221 
	C282.036560,67.001221 275.777588,67.001221 268.530212,67.001221 
z"/>
<path fill="#286DB3" opacity="1.000000" stroke="none" 
	d="
M151.585373,29.109722 
	C149.901291,28.692453 148.221771,27.937140 146.532379,27.914427 
	C137.582306,27.794107 128.629776,27.857914 119.300354,27.857914 
	C119.300354,20.259922 119.300354,13.027434 119.300354,4.969575 
	C120.883270,4.969575 122.624054,4.969025 124.364838,4.969657 
	C149.807495,4.978909 175.250137,4.998135 200.692795,4.991636 
	C208.208878,4.989717 207.463303,4.257439 207.464813,11.520665 
	C207.465088,12.847832 207.468933,14.174997 207.633728,15.776274 
	C207.721390,16.769623 207.646500,17.488861 207.512329,18.874371 
	C207.242584,22.335047 207.032120,25.129454 206.821655,27.923861 
	C196.543549,27.929338 186.265442,27.934816 175.196762,27.882059 
	C173.935791,29.267761 173.058350,30.710711 173.054840,32.155781 
	C172.978058,63.770378 172.998337,95.385208 173.000000,127.000000 
	C166.645599,127.000000 160.291214,127.000000 153.468231,126.531342 
	C153.000244,95.524284 153.024551,64.985809 152.940903,34.447639 
	C152.936035,32.667110 152.057388,30.888975 151.585373,29.109722 
z"/>
<path fill="#296EB2" opacity="1.000000" stroke="none" 
	d="
M4.468657,127.000000 
	C4.082726,118.010818 4.227682,109.021690 4.236747,100.032433 
	C4.266314,70.709976 4.246288,41.387463 4.245356,12.064972 
	C4.245288,9.929964 4.245347,7.794957 4.245347,5.311488 
	C11.595359,5.311488 18.497700,5.311488 25.938484,5.311488 
	C25.938484,37.998486 25.938484,70.711288 25.938484,104.117416 
	C42.323696,104.117416 58.197098,104.117416 74.844772,104.117416 
	C74.844772,111.887413 74.844772,118.980461 74.922386,126.536758 
	C51.645771,127.000000 28.291542,127.000000 4.468657,127.000000 
z"/>
<path fill="#236BB4" opacity="1.000000" stroke="none" 
	d="
M109.010612,17.003199 
	C109.076645,18.071417 109.142677,19.139635 108.809143,20.890818 
	C108.271179,23.217514 108.013107,24.861170 108.012047,26.504993 
	C107.990387,60.003319 107.998131,93.501663 108.000000,127.000000 
	C105.958336,127.000000 103.916664,127.000000 101.437317,126.531342 
	C100.999626,89.946068 100.999626,53.829449 100.999626,17.712830 
	C100.333084,17.712477 99.666542,17.712122 99.000000,17.711769 
	C99.000000,54.141178 99.000000,90.570587 99.000000,127.000000 
	C94.975075,127.000000 90.950157,127.000000 86.458984,126.531357 
	C85.991112,90.089005 85.990227,54.115307 85.987419,18.141607 
	C85.986465,5.986054 85.984734,5.928853 98.301819,6.035058 
	C102.216766,6.068816 107.293953,4.119656 108.083534,10.793756 
	C108.096695,10.905013 108.689568,10.947688 109.011917,11.022366 
	C109.073723,11.461130 109.135521,11.899895 108.749222,12.720249 
	C106.341736,14.801628 106.235413,16.164425 109.010612,17.003199 
z"/>
<path fill="#286CB1" opacity="1.000000" stroke="none" 
	d="
M436.656006,10.023756 
	C436.715637,10.764872 436.775269,11.505987 436.414001,12.715569 
	C436.208191,15.132561 436.423340,17.081085 436.638489,19.029610 
	C436.714874,37.115234 436.817108,55.200798 436.860352,73.286499 
	C436.902435,90.880196 436.884094,108.474022 436.946167,126.533897 
	C422.979095,127.000000 408.958221,127.000000 394.515900,126.648125 
	C395.433899,125.234543 396.801636,124.206131 398.102997,123.099701 
	C399.004028,122.333649 399.813538,121.459969 400.663910,120.634384 
	C400.663910,120.634377 400.811676,120.625336 401.026886,120.662323 
	C401.471069,120.424713 401.700043,120.150124 401.929047,119.875534 
	C401.929047,119.875542 401.969360,119.984772 402.321747,119.979462 
	C405.838196,118.358505 409.489288,117.300591 412.084869,115.033958 
	C425.843750,103.018951 431.514679,87.141556 431.835724,69.407608 
	C432.053650,57.367790 430.815216,45.551960 425.177643,34.231964 
	C420.057709,23.951279 413.054352,16.458130 402.759491,11.748856 
	C399.112549,10.080612 395.566956,8.190798 391.128784,5.980707 
	C403.254730,5.980707 414.394775,6.131616 425.527191,5.905869 
	C429.933411,5.816517 433.940521,5.941455 436.656006,10.023756 
z"/>
<path fill="#276CAF" opacity="1.000000" stroke="none" 
	d="
M541.454102,127.000000 
	C540.915894,115.058472 540.779846,103.117043 540.758667,91.175400 
	C540.715332,66.778915 540.733826,42.382313 540.829224,17.076694 
	C540.857056,12.763096 540.782471,9.358563 540.707886,5.954029 
	C543.735352,5.707835 546.762939,5.461641 549.986572,5.861751 
	C550.268188,6.736100 550.353760,6.964145 550.439331,7.192192 
	C550.481201,9.473201 550.523071,11.754210 550.407471,14.569633 
	C550.347229,15.464260 550.444519,15.824474 550.541809,16.184687 
	C550.587524,52.825893 550.633301,89.467102 550.839478,126.554153 
	C547.969421,127.000000 544.938782,127.000000 541.454102,127.000000 
z"/>
<path fill="#286CB1" opacity="1.000000" stroke="none" 
	d="
M467.468658,127.000000 
	C467.000000,106.426857 467.000000,85.853714 467.000000,65.280571 
	C467.316895,65.145172 467.633789,65.009773 467.950684,64.874367 
	C478.984894,85.339867 490.019104,105.805367 501.026672,126.635437 
	C489.979095,127.000000 478.958221,127.000000 467.468658,127.000000 
z"/>
<path fill="#2F70B2" opacity="1.000000" stroke="none" 
	d="
M317.109619,49.108734 
	C316.924316,56.230591 316.401489,63.362846 316.620575,70.472244 
	C317.155396,87.830696 323.425720,102.706245 336.951904,114.861267 
	C337.570374,115.550461 337.898499,115.707260 338.226624,115.864067 
	C338.226624,115.864067 338.096619,115.882568 338.202271,116.097420 
	C338.660278,116.419846 339.012695,116.527428 339.365082,116.635010 
	C339.365082,116.635010 339.231567,116.609612 339.289429,116.954712 
	C340.353302,117.710854 341.359375,118.121902 342.365417,118.532959 
	C342.365417,118.532959 342.398285,118.681152 342.391083,118.972984 
	C346.917389,121.498466 342.431091,124.450562 343.000000,127.000000 
	C333.645782,127.000000 324.291534,127.000000 314.470337,126.531342 
	C314.002472,112.955139 314.053955,99.847115 313.931946,86.740700 
	C313.917297,85.166595 312.961334,83.601257 312.318787,81.576721 
	C312.273041,70.412048 312.350220,59.702511 312.686218,48.989525 
	C313.290192,48.991219 313.635315,48.996361 313.984070,49.393906 
	C313.987640,51.196556 313.987640,52.606800 313.987640,54.041233 
	C315.104095,52.277313 316.106842,50.693020 317.109619,49.108734 
z"/>
<path fill="#2F649F" opacity="1.000000" stroke="none" 
	d="
M303.994476,22.956213 
	C301.927216,21.979374 300.589691,21.559816 302.198425,18.310926 
	C303.663330,15.352580 302.896057,11.192119 302.671570,7.589024 
	C302.634003,6.986342 300.347900,6.059573 299.103973,6.064723 
	C273.834503,6.169336 248.565475,6.388209 223.296356,6.583432 
	C222.678162,6.588208 222.059906,6.584035 220.995804,6.584035 
	C220.995804,46.545223 220.995804,86.303963 220.997894,126.531349 
	C220.555557,127.000000 220.111099,127.000000 219.333328,127.000000 
	C219.046249,86.973190 219.092499,46.946384 219.393585,6.373318 
	C219.831619,5.654193 219.950943,5.444892 220.006378,5.199159 
	C245.035751,5.130383 270.065125,5.061184 295.094513,4.993456 
	C297.747437,4.986278 300.400391,4.987732 303.592773,5.460968 
	C304.086334,11.609907 304.040405,17.283060 303.994476,22.956213 
z"/>
<path fill="#3C6CA4" opacity="1.000000" stroke="none" 
	d="
M109.126740,10.580238 
	C108.689568,10.947688 108.096695,10.905013 108.083534,10.793756 
	C107.293953,4.119656 102.216766,6.068816 98.301819,6.035058 
	C85.984734,5.928853 85.986465,5.986054 85.987419,18.141607 
	C85.990227,54.115307 85.991112,90.089005 85.996368,126.531357 
	C85.555557,127.000000 85.111107,127.000000 84.333328,127.000000 
	C84.000000,86.502510 84.000000,46.005024 84.000000,5.229780 
	C92.497513,5.229780 100.557388,5.229780 109.241554,5.229780 
	C109.241554,6.959716 109.241554,8.548913 109.126740,10.580238 
z"/>
<path fill="#256CAA" opacity="1.000000" stroke="none" 
	d="
M99.333328,127.000000 
	C99.000000,90.570587 99.000000,54.141178 99.000000,17.711769 
	C99.666542,17.712122 100.333084,17.712477 100.999626,17.712830 
	C100.999626,53.829449 100.999626,89.946068 100.999817,126.531342 
	C100.555557,127.000000 100.111107,127.000000 99.333328,127.000000 
z"/>
<path fill="#2368A8" opacity="1.000000" stroke="none" 
	d="
M173.333328,127.000000 
	C172.998337,95.385208 172.978058,63.770378 173.054840,32.155781 
	C173.058350,30.710711 173.935791,29.267761 174.733429,27.926807 
	C175.021301,28.490587 174.981934,28.951384 174.629684,29.969517 
	C174.468872,31.666700 174.620956,32.806545 174.773041,33.946392 
	C174.855194,53.528889 174.953644,73.111343 175.013184,92.693909 
	C175.047012,103.816772 175.017166,114.939827 175.007996,126.531403 
	C174.555557,127.000000 174.111099,127.000000 173.333328,127.000000 
z"/>
<path fill="#2563A0" opacity="1.000000" stroke="none" 
	d="
M151.498016,29.521931 
	C152.057388,30.888975 152.936035,32.667110 152.940903,34.447639 
	C153.024551,64.985809 153.000244,95.524284 152.999817,126.531342 
	C153.000000,127.000000 152.500000,127.000000 152.250000,127.000000 
	C151.744476,125.578621 151.265518,124.157127 151.266251,122.735878 
	C151.282211,91.801949 151.351562,60.868046 151.498016,29.521931 
z"/>
<path fill="#DDF0FE" opacity="1.000000" stroke="none" 
	d="
M312.427399,48.992970 
	C312.350220,59.702511 312.273041,70.412048 312.216797,82.033310 
	C312.218506,96.383675 312.177551,109.822380 312.215942,123.260872 
	C312.219513,124.507988 312.726685,125.753654 313.000000,127.000000 
	C312.555542,127.000000 312.111115,127.000000 311.333313,127.000000 
	C310.991058,88.518990 310.978699,50.037979 310.987488,11.556974 
	C310.987793,10.239341 311.200348,8.921758 311.706360,7.731202 
	C312.212219,17.241764 312.325714,26.625275 312.337341,36.334797 
	C312.304199,37.105625 312.372894,37.550442 312.332520,38.442863 
	C312.291412,42.257965 312.359406,45.625465 312.427399,48.992970 
z"/>
<path fill="#3C6CA4" opacity="1.000000" stroke="none" 
	d="
M108.250000,127.000000 
	C107.998131,93.501663 107.990387,60.003319 108.012047,26.504993 
	C108.013107,24.861170 108.271179,23.217514 108.711731,21.282726 
	C109.111145,27.790833 109.288620,34.589958 109.291656,41.389160 
	C109.304276,69.622330 109.264252,97.855522 109.121773,126.544357 
	C109.000000,127.000000 108.500000,127.000000 108.250000,127.000000 
z"/>
<path fill="#2962A1" opacity="1.000000" stroke="none" 
	d="
M313.250000,127.000000 
	C312.726685,125.753654 312.219513,124.507988 312.215942,123.260872 
	C312.177551,109.822380 312.218506,96.383675 312.339722,82.488441 
	C312.961334,83.601257 313.917297,85.166595 313.931946,86.740700 
	C314.053955,99.847115 314.002472,112.955139 314.001678,126.531342 
	C314.000000,127.000000 313.500000,127.000000 313.250000,127.000000 
z"/>
<path fill="#366DAA" opacity="1.000000" stroke="none" 
	d="
M343.416656,127.000000 
	C342.431091,124.450562 346.917389,121.498466 342.344055,118.913422 
	C345.480255,120.145721 348.656311,121.729408 351.607361,123.649963 
	C350.254913,124.991211 349.127472,125.995605 348.000000,127.000000 
	C346.611115,127.000000 345.222198,127.000000 343.416656,127.000000 
z"/>
<path fill="#2D67A1" opacity="1.000000" stroke="none" 
	d="
M302.333313,127.000000 
	C301.744415,121.720802 301.412048,116.442856 301.325562,111.160889 
	C301.314117,110.460732 302.553894,109.740105 303.671814,109.487503 
	C304.086304,115.630699 304.043152,121.315353 304.000000,127.000000 
	C303.555542,127.000000 303.111115,127.000000 302.333313,127.000000 
z"/>
<path fill="#4178AE" opacity="1.000000" stroke="none" 
	d="
M400.297424,120.670700 
	C399.813538,121.459969 399.004028,122.333649 398.102997,123.099701 
	C396.801636,124.206131 395.433899,125.234543 394.047241,126.648125 
	C392.285645,127.000000 390.571289,127.000000 388.428467,127.000000 
	C391.976990,124.902344 395.953979,122.804680 400.297424,120.670700 
z"/>
<path fill="#C7DEEF" opacity="1.000000" stroke="none" 
	d="
M304.250000,127.000000 
	C304.043152,121.315353 304.086304,115.630699 304.059814,109.485107 
	C304.080994,108.256950 304.171814,107.489738 304.401428,106.363220 
	C304.714813,112.690842 304.889404,119.377777 305.031982,126.532364 
	C305.000000,127.000000 304.500000,127.000000 304.250000,127.000000 
z"/>
<path fill="#216BB1" opacity="1.000000" stroke="none" 
	d="
M348.428467,127.000000 
	C349.127472,125.995605 350.254913,124.991211 351.755310,123.967926 
	C352.772522,124.744461 353.416809,125.539894 354.030579,126.667664 
	C352.285645,127.000000 350.571289,127.000000 348.428467,127.000000 
z"/>
<path fill="#256CB2" opacity="1.000000" stroke="none" 
	d="
M393.998840,96.913315 
	C393.998840,96.913315 393.855927,97.176064 393.299561,97.139938 
	C391.491730,98.351288 390.240295,99.598755 388.988831,100.846230 
	C387.682251,101.396698 386.375641,101.947151 384.392883,102.734184 
	C374.152618,104.503685 364.994415,103.726624 356.548584,98.426979 
	C355.852509,97.990204 354.648926,98.362251 353.681152,98.358490 
	C353.681152,98.358498 353.629883,98.207832 353.656433,97.980225 
	C353.361115,97.568939 353.039185,97.385246 352.717285,97.201561 
	C352.717285,97.201561 352.832672,97.161430 352.768311,96.936104 
	C352.382751,96.535751 352.061523,96.360733 351.740295,96.185707 
	C351.740295,96.185707 351.905853,96.145294 351.884216,95.822281 
	C351.521545,94.569572 351.325256,93.551178 350.818024,92.723267 
	C340.702271,76.212730 340.539490,59.346966 349.076721,42.229649 
	C353.755676,32.848213 362.535767,29.147175 371.983795,28.327456 
	C377.638275,27.836866 383.562714,30.457811 389.365814,31.680180 
	C389.365814,31.680180 389.229065,31.688238 389.288818,32.005051 
	C390.331421,32.773827 391.314270,33.225792 392.297119,33.677765 
	C392.297119,33.677765 392.213898,33.997837 392.193237,34.209190 
	C395.212067,38.898914 398.251526,43.377293 401.291016,47.855667 
	C401.291016,47.855663 401.189636,47.935249 401.129395,48.310257 
	C401.286957,50.313866 401.444183,51.953247 401.732025,53.569366 
	C404.037048,66.510452 404.172699,79.069405 396.134308,90.498734 
	C394.892578,92.264244 394.684784,94.756920 393.998840,96.913315 
z"/>
<path fill="#296CB0" opacity="1.000000" stroke="none" 
	d="
M509.979004,29.000019 
	C509.979004,43.730003 509.979004,57.959999 509.979004,72.189995 
	C509.632812,72.306053 509.286621,72.422104 508.940399,72.538155 
	C496.592316,50.329815 484.244232,28.121473 471.572144,5.330433 
	C484.607910,5.330433 496.932983,5.330433 509.979004,5.330433 
	C509.979004,13.016950 509.979004,20.758490 509.979004,29.000019 
z"/>
<path fill="#266CB2" opacity="1.000000" stroke="none" 
	d="
M312.441589,37.995262 
	C312.372894,37.550442 312.304199,37.105625 312.691650,36.192635 
	C313.431549,30.166647 313.906555,24.610697 313.960602,19.050655 
	C314.087524,5.998863 314.006866,6.087188 327.233551,5.959852 
	C333.811371,5.896526 340.385376,5.437074 346.961090,5.156818 
	C347.425781,5.109542 347.890472,5.062267 348.918671,5.312409 
	C350.639526,5.464024 351.796875,5.318221 352.954224,5.172419 
	C355.253937,5.172419 357.553680,5.172419 359.853394,5.172419 
	C359.918854,5.573737 359.984283,5.975054 360.049713,6.376372 
	C357.616180,7.224650 355.182617,8.072929 352.120483,8.676035 
	C345.486969,7.792120 339.594299,11.271938 337.015839,16.979399 
	C337.015839,16.979399 337.003571,17.018620 336.602905,17.005711 
	C331.200134,17.504137 329.229004,20.915081 328.264984,25.289495 
	C328.264984,25.289495 328.193176,25.195936 327.960571,25.262440 
	C327.615112,25.681574 327.502289,26.034204 327.389465,26.386833 
	C327.389435,26.386829 327.360077,26.196711 327.024658,26.277412 
	C322.025970,29.017447 319.226990,34.113403 320.126953,38.305733 
	C320.126953,38.305733 320.176788,38.655048 319.744873,38.893944 
	C318.939026,40.492344 318.565125,41.851849 318.191254,43.211349 
	C318.191254,43.211353 318.138824,43.090359 317.859680,43.291901 
	C317.419495,45.361649 317.258423,47.229855 317.097351,49.098061 
	C317.097351,49.098061 317.079803,49.087799 317.094727,49.098267 
	C316.106842,50.693020 315.104095,52.277313 313.987640,54.041233 
	C313.987640,52.606800 313.987640,51.196556 313.989685,48.941017 
	C313.475037,44.728909 312.958313,41.362083 312.441589,37.995262 
z"/>
<path fill="#4178AE" opacity="1.000000" stroke="none" 
	d="
M436.778046,9.619032 
	C433.940521,5.941455 429.933411,5.816517 425.527191,5.905869 
	C414.394775,6.131616 403.254730,5.980707 391.128784,5.980707 
	C395.566956,8.190798 399.112549,10.080612 402.759491,11.748856 
	C413.054352,16.458130 420.057709,23.951279 425.177643,34.231964 
	C430.815216,45.551960 432.053650,57.367790 431.835724,69.407608 
	C431.514679,87.141556 425.843750,103.018951 412.084869,115.033958 
	C409.489288,117.300591 405.838196,118.358505 402.281677,119.937233 
	C412.744354,112.588043 421.819397,103.680435 425.844513,90.866852 
	C432.625214,69.281334 432.260376,48.190166 419.591858,28.587204 
	C411.994934,16.831905 400.379456,10.675364 387.196533,7.099068 
	C386.215607,6.832959 385.270325,6.435408 384.447632,4.943622 
	C387.813995,4.943622 391.180389,4.943599 394.546783,4.943626 
	C406.869354,4.943724 419.191956,4.921282 431.514404,4.960953 
	C434.339966,4.970049 437.466309,4.812707 436.778046,9.619032 
z"/>
<path fill="#4073A8" opacity="1.000000" stroke="none" 
	d="
M389.203522,31.370720 
	C383.562714,30.457811 377.638275,27.836866 371.983795,28.327456 
	C362.535767,29.147175 353.755676,32.848213 349.076721,42.229649 
	C340.539490,59.346966 340.702271,76.212730 350.818024,92.723267 
	C351.325256,93.551178 351.521545,94.569572 351.816223,95.873650 
	C349.103943,91.588272 345.490906,87.218964 343.955688,82.212494 
	C339.892883,68.963455 340.321106,55.565750 346.632782,43.007481 
	C354.676910,27.002230 373.360962,21.946150 389.203522,31.370720 
z"/>
<path fill="#4073A8" opacity="1.000000" stroke="none" 
	d="
M394.308716,96.794029 
	C394.684784,94.756920 394.892578,92.264244 396.134308,90.498734 
	C404.172699,79.069405 404.037048,66.510452 401.732025,53.569366 
	C401.444183,51.953247 401.286957,50.313866 401.145752,48.247932 
	C406.995697,65.176376 406.331085,81.672104 394.308716,96.794029 
z"/>
<path fill="#2F659F" opacity="1.000000" stroke="none" 
	d="
M346.499756,5.087807 
	C340.385376,5.437074 333.811371,5.896526 327.233551,5.959852 
	C314.006866,6.087188 314.087524,5.998863 313.960602,19.050655 
	C313.906555,24.610697 313.431549,30.166647 312.793518,35.866623 
	C312.325714,26.625275 312.212219,17.241764 311.965210,7.402247 
	C311.831665,6.946240 312.068909,6.938139 312.354156,6.795860 
	C312.742584,6.199214 312.845795,5.744846 312.948975,5.290477 
	C323.978790,5.199915 335.008606,5.109354 346.499756,5.087807 
z"/>
<path fill="#2D67A1" opacity="1.000000" stroke="none" 
	d="
M303.920776,105.513916 
	C291.495026,105.949295 278.888550,105.904121 266.283997,106.038071 
	C262.341370,106.079971 258.399872,106.877991 254.465302,106.820335 
	C251.437881,106.775993 248.422165,105.933372 245.400665,105.037064 
	C245.695541,104.579010 245.909302,104.419868 246.041382,104.150970 
	C263.135376,104.293404 280.229553,104.419380 297.323151,104.599075 
	C299.463898,104.621582 301.601685,104.927773 303.920776,105.513916 
z"/>
<path fill="#2E669D" opacity="1.000000" stroke="none" 
	d="
M246.009781,76.894226 
	C247.746033,76.592484 249.481171,76.036560 251.218735,76.028870 
	C266.306580,75.962151 281.394897,76.011986 296.483032,75.987732 
	C302.922150,75.977386 302.701141,75.365112 302.284637,68.779488 
	C302.153290,66.702469 300.093872,63.122707 303.708374,61.486282 
	C304.096252,67.018837 304.070343,72.088806 304.044403,77.158768 
	C302.649933,77.199944 301.255493,77.241119 299.179901,77.252594 
	C298.322296,77.291222 298.145844,77.359550 297.969360,77.427879 
	C284.618988,77.384941 271.268585,77.342003 257.025818,77.234558 
	C253.759308,77.254318 251.385178,77.338577 249.011032,77.422836 
	C248.585205,77.388908 248.159378,77.354980 247.150757,77.235313 
	C246.381912,77.064461 246.195847,76.979347 246.009781,76.894226 
z"/>
<path fill="#4073A8" opacity="1.000000" stroke="none" 
	d="
M353.847778,98.643517 
	C354.648926,98.362251 355.852509,97.990204 356.548584,98.426979 
	C364.994415,103.726624 374.152618,104.503685 384.131866,102.984375 
	C373.624634,107.230026 363.441345,105.916679 353.847778,98.643517 
z"/>
<path fill="#30679D" opacity="1.000000" stroke="none" 
	d="
M246.001831,26.010307 
	C265.031097,26.004822 284.060394,25.999336 303.605530,26.317968 
	C304.107117,26.855818 304.092773,27.069551 304.078461,27.283285 
	C287.342316,27.339437 270.606140,27.395590 253.063171,27.381100 
	C251.523758,27.420872 250.791153,27.531284 250.058563,27.641697 
	C248.965652,27.586010 247.872726,27.530325 246.406189,27.399284 
	C246.032578,27.323929 246.002853,26.993237 246.002182,26.747505 
	C246.001511,26.501772 246.001831,26.010307 246.001831,26.010307 
z"/>
<path fill="#3068A3" opacity="1.000000" stroke="none" 
	d="
M298.003662,57.991707 
	C283.876648,57.997116 269.749573,58.028446 255.622665,57.989021 
	C252.247650,57.979607 248.873276,57.734245 245.542236,57.239746 
	C245.758316,56.782009 245.930801,56.681927 246.103271,56.581844 
	C263.096741,56.647404 280.090240,56.712967 297.542725,57.133984 
	C298.002350,57.656864 298.002991,57.824284 298.003662,57.991707 
z"/>
<path fill="#2F70B2" opacity="1.000000" stroke="none" 
	d="
M337.358948,16.930214 
	C339.594299,11.271938 345.486969,7.792120 351.742493,8.701903 
	C347.229462,11.608973 342.465759,14.245001 337.358948,16.930214 
z"/>
<path fill="#2F70B2" opacity="1.000000" stroke="none" 
	d="
M320.457916,38.193768 
	C319.226990,34.113403 322.025970,29.017447 327.078033,26.357433 
	C325.240845,30.265104 323.014862,34.173454 320.457916,38.193768 
z"/>
<path fill="#C7DEEF" opacity="1.000000" stroke="none" 
	d="
M245.995544,56.203766 
	C245.930801,56.681927 245.758316,56.782009 245.300186,56.970284 
	C245.014526,57.058472 244.699371,56.867619 244.415359,56.416725 
	C244.080673,47.602657 243.942184,39.238129 244.070862,30.877710 
	C244.090942,29.573284 245.328354,28.287592 246.002853,26.993237 
	C246.002853,26.993237 246.032578,27.323929 246.003479,27.487486 
	C245.945526,37.042591 245.916672,46.434143 245.995544,56.203766 
z"/>
<path fill="#C7DEEF" opacity="1.000000" stroke="none" 
	d="
M245.619476,77.031937 
	C246.195847,76.979347 246.381912,77.064461 246.835709,77.299843 
	C246.419998,79.533234 245.178589,81.610451 245.156509,83.700562 
	C245.087265,90.254219 245.477356,96.812729 245.865448,103.760162 
	C245.909302,104.419868 245.695541,104.579010 245.205917,104.697617 
	C244.665482,99.055428 244.097946,93.345657 244.055038,87.631950 
	C244.028870,84.147652 244.810410,80.657280 245.619476,77.031937 
z"/>
<path fill="#4073A8" opacity="1.000000" stroke="none" 
	d="
M401.296021,47.474075 
	C398.251526,43.377293 395.212067,38.898914 392.244507,34.050182 
	C395.311279,38.150711 398.306122,42.621597 401.296021,47.474075 
z"/>
<path fill="#2F70B2" opacity="1.000000" stroke="none" 
	d="
M328.571564,25.163534 
	C329.229004,20.915081 331.200134,17.504137 336.583008,17.000576 
	C334.268585,19.684759 331.573364,22.361166 328.571564,25.163534 
z"/>
<path fill="#C7DEEF" opacity="1.000000" stroke="none" 
	d="
M304.395660,27.283260 
	C304.092773,27.069551 304.107117,26.855818 304.076111,26.324066 
	C304.067108,25.241489 304.103424,24.476933 304.067108,23.334293 
	C304.040405,17.283060 304.086334,11.609907 304.060547,5.474422 
	C304.353943,8.669847 304.913269,12.321413 305.030090,15.987081 
	C305.149841,19.745281 304.836609,23.517279 304.395660,27.283260 
z"/>
<path fill="#C7DEEF" opacity="1.000000" stroke="none" 
	d="
M304.353271,77.200668 
	C304.070343,72.088806 304.096252,67.018837 304.052856,61.489193 
	C304.075226,60.259819 304.166901,59.490124 304.396667,58.359344 
	C304.577209,64.413025 304.619659,70.827797 304.353271,77.200668 
z"/>
<path fill="#FBFEFE" opacity="1.000000" stroke="none" 
	d="
M207.221970,27.876259 
	C207.032120,25.129454 207.242584,22.335047 207.618668,19.224087 
	C207.730286,21.881245 207.676285,24.854950 207.221970,27.876259 
z"/>
<path fill="#4178AE" opacity="1.000000" stroke="none" 
	d="
M436.755035,18.608215 
	C436.423340,17.081085 436.208191,15.132561 436.323059,13.078844 
	C436.725891,14.711375 436.798737,16.449097 436.755035,18.608215 
z"/>
<path fill="#AECAE1" opacity="1.000000" stroke="none" 
	d="
M540.474976,6.280696 
	C540.782471,9.358563 540.857056,12.763096 540.795288,16.613565 
	C540.519958,13.575455 540.380981,10.091408 540.474976,6.280696 
z"/>
<path fill="#4073A8" opacity="1.000000" stroke="none" 
	d="
M389.313904,100.780746 
	C390.240295,99.598755 391.491730,98.351288 393.151917,97.163742 
	C392.253418,98.387527 390.946167,99.551399 389.313904,100.780746 
z"/>
<path fill="#2F70B2" opacity="1.000000" stroke="none" 
	d="
M317.395752,48.954727 
	C317.258423,47.229855 317.419495,45.361649 317.925598,43.290230 
	C318.078491,44.995144 317.886322,46.903271 317.395752,48.954727 
z"/>
<path fill="#C7DEEF" opacity="1.000000" stroke="none" 
	d="
M249.322571,77.630211 
	C251.385178,77.338577 253.759308,77.254318 256.561646,77.300148 
	C254.537933,77.566017 252.086029,77.701805 249.322571,77.630211 
z"/>
<path fill="#2F70B2" opacity="1.000000" stroke="none" 
	d="
M318.477661,43.090294 
	C318.565125,41.851849 318.939026,40.492344 319.684937,39.059895 
	C319.626007,40.314377 319.195038,41.641808 318.477661,43.090294 
z"/>
<path fill="#2E669D" opacity="1.000000" stroke="none" 
	d="
M298.437744,57.994965 
	C298.002991,57.824284 298.002350,57.656864 298.001892,57.238304 
	C299.934387,57.039886 301.866699,57.092606 303.947998,57.535423 
	C302.355225,57.949757 300.613525,57.973991 298.437744,57.994965 
z"/>
<path fill="#366DAA" opacity="1.000000" stroke="none" 
	d="
M342.201477,118.272324 
	C341.359375,118.121902 340.353302,117.710854 339.348083,116.920448 
	C340.245148,117.031296 341.141327,117.521500 342.201477,118.272324 
z"/>
<path fill="#4073A8" opacity="1.000000" stroke="none" 
	d="
M392.148254,33.403717 
	C391.314270,33.225792 390.331421,32.773827 389.336884,31.956251 
	C390.216583,32.103653 391.108002,32.616661 392.148254,33.403717 
z"/>
<path fill="#2F659F" opacity="1.000000" stroke="none" 
	d="
M352.568481,5.093367 
	C351.796875,5.318221 350.639526,5.464024 349.263794,5.382014 
	C350.091187,5.107573 351.136993,5.060945 352.568481,5.093367 
z"/>
<path fill="#286DB3" opacity="1.000000" stroke="none" 
	d="
M174.875702,33.566185 
	C174.620956,32.806545 174.468872,31.666700 174.524826,30.300468 
	C174.814682,31.111380 174.896515,32.148678 174.875702,33.566185 
z"/>
<path fill="#C7DEEF" opacity="1.000000" stroke="none" 
	d="
M250.272217,27.787949 
	C250.791153,27.531284 251.523758,27.420872 252.600830,27.470280 
	C252.125504,27.731464 251.305679,27.832830 250.272217,27.787949 
z"/>
<path fill="#2F70B2" opacity="1.000000" stroke="none" 
	d="
M312.675781,5.357415 
	C312.845795,5.744846 312.742584,6.199214 312.470428,6.819708 
	C312.335144,6.465341 312.368866,5.944846 312.675781,5.357415 
z"/>
<path fill="#4178AE" opacity="1.000000" stroke="none" 
	d="
M401.658508,119.902817 
	C401.700043,120.150124 401.471069,120.424713 400.960999,120.696045 
	C400.915924,120.438560 401.151947,120.184334 401.658508,119.902817 
z"/>
<path fill="#366DAA" opacity="1.000000" stroke="none" 
	d="
M339.244110,116.390900 
	C339.012695,116.527428 338.660278,116.419846 338.215881,116.033203 
	C338.456970,115.885017 338.790070,116.015907 339.244110,116.390900 
z"/>
<path fill="#447CB1" opacity="1.000000" stroke="none" 
	d="
M219.766388,5.198592 
	C219.950943,5.444892 219.831619,5.654193 219.487839,5.913711 
	C219.327271,6.000361 219.191345,5.540730 219.191345,5.540730 
	C219.191345,5.540730 219.526398,5.198025 219.766388,5.198592 
z"/>
<path fill="#366DAA" opacity="1.000000" stroke="none" 
	d="
M338.108765,115.607773 
	C337.898499,115.707260 337.570374,115.550461 337.111755,115.146255 
	C337.317841,115.049736 337.654358,115.200615 338.108765,115.607773 
z"/>
<path fill="#8CB4D8" opacity="1.000000" stroke="none" 
	d="
M550.578247,7.043239 
	C550.353760,6.964145 550.268188,6.736100 550.296814,6.160629 
	C550.513062,6.173565 550.615112,6.533926 550.578247,7.043239 
z"/>
<path fill="#8CB4D8" opacity="1.000000" stroke="none" 
	d="
M550.650513,15.841734 
	C550.444519,15.824474 550.347229,15.464260 550.392334,14.959593 
	C550.609619,15.043019 550.684448,15.270900 550.650513,15.841734 
z"/>
<path fill="#4073A8" opacity="1.000000" stroke="none" 
	d="
M352.786133,97.466911 
	C353.039185,97.385246 353.361115,97.568939 353.697845,98.047897 
	C353.426788,98.139534 353.140900,97.935898 352.786133,97.466911 
z"/>
<path fill="#4073A8" opacity="1.000000" stroke="none" 
	d="
M351.811096,96.453941 
	C352.061523,96.360733 352.382751,96.535751 352.753174,96.995285 
	C352.495575,97.093925 352.188751,96.908051 351.811096,96.453941 
z"/>
<path fill="#2F70B2" opacity="1.000000" stroke="none" 
	d="
M327.638062,26.280140 
	C327.502289,26.034204 327.615112,25.681574 328.019501,25.264982 
	C328.169556,25.525160 328.028107,25.849302 327.638062,26.280140 
z"/>
<path fill="#C7DEEF" opacity="1.000000" stroke="none" 
	d="
M298.072815,77.568085 
	C298.145844,77.359550 298.322296,77.291222 298.766724,77.317093 
	C298.748505,77.510284 298.462402,77.609283 298.072815,77.568085 
z"/>
<path fill="#FEFDF8" opacity="1.000000" stroke="none" 
	d="
M30.999924,68.000000 
	C30.957047,77.152428 30.918745,85.804886 30.850510,94.457115 
	C30.848328,94.733665 30.538929,95.007805 29.941156,95.997955 
	C29.525719,94.537674 29.038057,93.620186 29.036499,92.701889 
	C28.994135,67.735359 28.986126,42.768707 29.048361,17.802265 
	C29.051296,16.624716 29.707396,15.428878 30.204363,14.305740 
	C30.250055,14.202475 31.882469,14.558837 31.885344,14.717907 
	C31.906099,15.866249 31.694365,17.018478 31.560816,18.169998 
	C31.371819,19.799591 31.029140,21.429186 31.024527,23.059553 
	C30.982586,37.872940 30.999928,52.686493 30.999924,68.000000 
z"/>
<path fill="#3C6CA4" opacity="1.000000" stroke="none" 
	d="
M109.123734,16.610561 
	C106.235413,16.164425 106.341736,14.801628 108.648979,13.040722 
	C109.076836,14.059046 109.156837,15.138486 109.123734,16.610561 
z"/>
<path fill="#2C69AA" opacity="1.000000" stroke="none" 
	d="
M269.024414,67.001221 
	C275.777588,67.001221 282.036560,67.001221 288.295532,67.001221 
	C288.290283,67.440132 288.285034,67.879044 288.279785,68.317955 
	C278.093323,68.317955 267.906891,68.317955 257.720428,68.317955 
	C257.702179,67.879044 257.683929,67.440132 257.665680,67.001221 
	C261.287201,67.001221 264.908691,67.001221 269.024414,67.001221 
z"/>
<path fill="#3068A3" opacity="1.000000" stroke="none" 
	d="
M246.002182,26.747505 
	C245.328354,28.287592 244.090942,29.573284 244.070862,30.877710 
	C243.942184,39.238129 244.080673,47.602657 244.231140,56.415195 
	C243.554138,55.878914 242.120499,54.904053 242.104111,53.905930 
	C241.969345,45.693832 241.981140,37.473122 242.283371,29.267353 
	C242.324509,28.150484 244.216721,27.101795 245.626846,26.015923 
	C246.001831,26.010307 246.001511,26.501772 246.002182,26.747505 
z"/>
<path fill="#2F659F" opacity="1.000000" stroke="none" 
	d="
M312.332520,38.442860 
	C312.958313,41.362083 313.475037,44.728909 313.986115,48.548615 
	C313.635315,48.996361 313.290192,48.991219 312.686218,48.989525 
	C312.359406,45.625465 312.291412,42.257965 312.332520,38.442860 
z"/>
</svg>